<?xml version="1.0" encoding="UTF-8"?>
<!DOCTYPE svg PUBLIC "-//W3C//DTD SVG 1.1//EN" "http://www.w3.org/Graphics/SVG/1.1/DTD/svg11.dtd">
<svg xmlns="http://www.w3.org/2000/svg" version="1.1" width="500px" height="500px" style="shape-rendering:geometricPrecision; text-rendering:geometricPrecision; image-rendering:optimizeQuality; fill-rule:evenodd; clip-rule:evenodd" xmlns:xlink="http://www.w3.org/1999/xlink">
<g><path style="opacity:0.937" fill="#fefffe" d="M 141.5,193.5 C 154.837,193.333 168.171,193.5 181.5,194C 185.667,198.167 189.833,202.333 194,206.5C 195.232,213.219 196.232,219.885 197,226.5C 190.407,221.119 183.907,215.619 177.5,210C 168.806,209.418 160.139,209.752 151.5,211C 139,223.5 126.5,236 114,248.5C 114.606,251.46 116.439,253.627 119.5,255C 122.167,255.667 124.833,255.667 127.5,255C 135.136,246.363 143.136,238.03 151.5,230C 162.127,228.522 172.794,228.188 183.5,229C 191.868,236.37 199.868,244.037 207.5,252C 190.208,270.293 172.541,288.293 154.5,306C 141.167,306.667 127.833,306.667 114.5,306C 109.333,302.167 104.833,297.667 101,292.5C 100.167,287.333 99.3332,282.166 98.5,277C 98.8333,276.167 99.1667,275.333 99.5,274.5C 105.017,279.851 110.684,285.018 116.5,290C 125.182,290.58 133.849,290.913 142.5,291C 155.347,278.319 168.014,265.486 180.5,252.5C 177.028,245.907 171.695,243.74 164.5,246C 156.167,254.333 147.833,262.667 139.5,271C 129.5,271.667 119.5,271.667 109.5,271C 102.333,263.833 95.1667,256.667 88,249.5C 87.2506,248.365 87.4173,247.365 88.5,246.5C 106.521,229.146 124.188,211.479 141.5,193.5 Z"/></g>
<g><path style="opacity:0.848" fill="#fefffe" d="M 228.5,231.5 C 230.924,231.192 233.257,231.526 235.5,232.5C 238.18,241.553 241.013,250.553 244,259.5C 248.746,250.339 253.746,241.339 259,232.5C 261.041,231.577 263.208,231.244 265.5,231.5C 264.001,243.49 262.501,255.49 261,267.5C 259.301,268.406 257.467,268.739 255.5,268.5C 256.241,261.158 256.741,253.825 257,246.5C 253.167,253.5 249.333,260.5 245.5,267.5C 243.326,268.893 241.493,268.56 240,266.5C 238.132,259.729 235.965,253.063 233.5,246.5C 232.062,253.775 231.062,261.108 230.5,268.5C 228.5,268.5 226.5,268.5 224.5,268.5C 226.126,256.201 227.459,243.867 228.5,231.5 Z"/></g>
<g><path style="opacity:0.835" fill="#fefffe" d="M 272.5,231.5 C 274.5,231.5 276.5,231.5 278.5,231.5C 277.624,239.676 276.624,247.842 275.5,256C 276.675,262.927 280.675,265.26 287.5,263C 289.378,261.457 290.878,259.624 292,257.5C 293.332,248.846 294.498,240.18 295.5,231.5C 297.5,231.5 299.5,231.5 301.5,231.5C 300.473,241.241 298.973,250.908 297,260.5C 291.394,269.111 283.894,271.277 274.5,267C 272.106,265.048 270.606,262.548 270,259.5C 270.499,250.166 271.332,240.832 272.5,231.5 Z"/></g>
<g><path style="opacity:0.844" fill="#fefffe" d="M 308.5,231.5 C 331.69,227.847 340.19,237.18 334,259.5C 331.778,263.388 328.612,266.221 324.5,268C 317.842,268.5 311.175,268.666 304.5,268.5C 306.126,256.201 307.459,243.867 308.5,231.5 Z M 314.5,236.5 C 328.152,235.993 332.985,242.326 329,255.5C 325.534,262.934 319.701,265.6 311.5,263.5C 312.091,254.438 313.091,245.438 314.5,236.5 Z"/></g>
<g><path style="opacity:0.841" fill="#fefffe" d="M 344.5,231.5 C 352.167,231.5 359.833,231.5 367.5,231.5C 367.5,233.167 367.5,234.833 367.5,236.5C 361.794,236.171 356.128,236.505 350.5,237.5C 349.593,240.421 349.26,243.421 349.5,246.5C 354.167,246.5 358.833,246.5 363.5,246.5C 363.5,248.167 363.5,249.833 363.5,251.5C 358.5,251.5 353.5,251.5 348.5,251.5C 347.838,255.466 347.505,259.466 347.5,263.5C 352.833,263.5 358.167,263.5 363.5,263.5C 363.5,265.167 363.5,266.833 363.5,268.5C 355.833,268.5 348.167,268.5 340.5,268.5C 342.126,256.201 343.459,243.867 344.5,231.5 Z"/></g>
<g><path style="opacity:0.831" fill="#fefffe" d="M 370.5,231.5 C 373.079,231.083 375.246,231.75 377,233.5C 378.494,242.304 380.494,250.971 383,259.5C 387.167,250.5 391.333,241.5 395.5,232.5C 397.5,231.167 399.5,231.167 401.5,232.5C 395.962,244.41 390.295,256.243 384.5,268C 381.937,268.918 379.77,268.418 378,266.5C 375.338,254.854 372.838,243.187 370.5,231.5 Z"/></g>
</svg>
